<svg viewBox="0 -27 512.00005 512" xmlns="http://www.w3.org/2000/svg">
    <path
        d="m107.324219 118.664062v12.449219c0 4.144531 3.359375 7.5 7.5 7.5 4.144531 0 7.5-3.355469 7.5-7.5v-12.449219c0-4.144531-3.355469-7.5-7.5-7.5-4.140625 0-7.5 3.355469-7.5 7.5zm0 0" />
    <path
        d="m507.679688 226.546875c-1.6875-11.390625-9.03125-20.878906-19.648438-25.375-10.664062-4.515625-22.652344-3.179687-32.0625 3.574219-35.949219 25.8125-79.828125 31.636718-110.304688 31.976562-.035156 0-.070312 0-.105468 0-4.042969 0-6.140625-2.664062-6.855469-3.8125-.730469-1.171875-2.21875-4.289062-.351563-7.984375 10.816407-21.382812 16.402344-44.445312 16.605469-68.550781.429688-50.507812-24.101562-98.28125-65.613281-127.792969-3.375-2.402343-8.058594-1.609375-10.457031 1.765625-2.402344 3.378906-1.609375 8.0625 1.765625 10.460938 37.523437 26.671875 59.691406 69.828125 59.308594 115.441406-.1875 21.773438-5.230469 42.601562-14.992188 61.902344-3.683594 7.28125-3.308594 15.761718 1 22.683594 4.300781 6.90625 11.710938 10.992187 19.863281 10.886718 32.636719-.363281 79.757813-6.695312 118.886719-34.789062 5.125-3.679688 11.652344-4.40625 17.460938-1.945313 5.761718 2.441407 9.746093 7.582031 10.660156 13.757813 4.972656 33.617187 7.988281 83.363281-5.886719 129.449218-7.363281 24.457032-22.125 45.4375-42.691406 60.671876-20.550781 15.222656-44.9375 23.269531-70.523438 23.269531h-190.53125c-29.121093 0-57.089843-12.335938-76.730469-33.847657-19.824218-21.707031-29.277343-49.746093-26.617187-78.953124 1.582031-17.410157 5.847656-34.921876 12.675781-52.050782 5.117188-12.839844 3.179688-27.699218-5.0625-38.78125-18.046875-24.269531-27.582031-53.132812-27.582031-83.464844 0-37.773437 14.8125-73.183593 41.707031-99.710937 26.417969-26.050781 61.257813-40.328125 98.316406-40.328125.664063 0 1.339844.007812 2.003907.015625 18.78125.261719 36.992187 4.230469 54.125 11.792969 3.789062 1.671875 8.214843-.042969 9.890625-3.832032 1.671875-3.789062-.042969-8.21875-3.832032-9.890624-18.988281-8.382813-39.164062-12.78125-59.972656-13.070313-41.867187-.582031-81.289062 15.269531-111.0625 44.632813-20.613281 20.328124-34.808594 45.375-41.601562 72.734374l-34.847656 17.515626c-9.015626 4.53125-14.617188 13.613281-14.617188 23.707031 0 10.089843 5.601562 19.171875 14.617188 23.703125l37.167968 18.683594c5.128906 16.570312 13.066406 32.226562 23.652344 46.460937 5.15625 6.933594 6.371094 16.234375 3.164062 24.273437-7.363281 18.472657-11.964843 37.398438-13.683593 56.25-3 32.96875 8.109375 65.925782 30.480469 90.425782 22.476562 24.613281 54.480468 38.730468 87.8125 38.730468h190.527343c28.824219 0 56.300781-9.0625 79.453125-26.214843 23.183594-17.171875 39.824219-40.828125 48.125-68.398438 14.675782-48.738281 11.558594-100.84375 6.363282-135.972656zm-486.324219-57.640625c-3.980469-2-6.355469-5.851562-6.355469-10.300781 0-4.453125 2.375-8.304688 6.355469-10.304688l24.695312-12.414062c-3.09375 20.285156-.378906 37.222656 1.148438 46.011719zm0 0" />
    <path
        d="m414.863281 330.917969c-1.921875 3.667969-.507812 8.203125 3.164063 10.125 3.667968 1.921875 8.199218.507812 10.121094-3.164063 2.722656-5.195312 5.222656-10.675781 7.429687-16.289062 4.300781-10.9375 2.902344-23.285156-3.738281-33.03125-6.691406-9.824219-17.78125-15.6875-29.65625-15.6875h-127.707032c-20.761718 0-40.214843 9.226562-53.382812 25.308594-12.875 15.730468-17.976562 36.074218-13.996094 55.816406 3.417969 16.953125 12.484375 30.300781 26.941406 39.671875 16.507813 10.695312 40.289063 16.121093 70.6875 16.121093 44.152344 0 79.492188-15.027343 105.039063-44.667968 2.703125-3.136719 2.351563-7.871094-.785156-10.578125-3.136719-2.703125-7.875-2.351563-10.578125.785156-22.566406 26.183594-54.082032 39.460937-93.675782 39.460937-27.453124 0-48.492187-4.613281-62.527343-13.710937-11.097657-7.191406-17.769531-17.019531-20.398438-30.046875-3.085937-15.316406.886719-31.113281 10.902344-43.351562 10.304687-12.589844 25.53125-19.808594 41.773437-19.808594h127.707032c7.011718 0 13.304687 3.328125 17.261718 9.136718 3.898438 5.726563 4.691407 12.683594 2.171876 19.09375-2.011719 5.113282-4.28125 10.097657-6.753907 14.816407zm0 0" />
</svg>