<svg height="512" viewBox="0 0 49 60" width="512" xmlns="http://www.w3.org/2000/svg">
    <g id="Page-1" fill="none" fill-rule="evenodd">
        <g id="009---Sleepy-Sloth" fill="rgb(255,255,255)" stroke-width="0.1" stroke="white"
            fill-rule="nonzero">
            <path id="Shape"
                d="m16 60c2.6661005.0243831 5.3309894-.1235921 7.978-.443 1.9933359.2989023 4.0063823.4469892 6.022.443 8.273 0 13.794-2.011 16.408-5.977 2.426-3.678 2.257-9.009-.489-15.417-2.709908-6.525948-4.0440587-13.5408773-3.919-20.606-.0171501-3.833331-1.5571929-7.5026689-4.281-10.2-2.0571719-2.05227955-4.6265563-3.51601032-7.441-4.239-.905-1.139-2.917-2.84-7.112-3.547-.2901321-.04883955-.5870499.03256455-.8117074.22254078s-.3542556.46924509-.3542926.76345922v.6c-2.3784101-.69811165-4.948277-.04673642-6.707 1.7-.245167.24507882-.3459191.59964716-.2662601.93702668.0796591.33737952.3283645.60943706.6572601.71897332.4821317.16250335.9520012.35934059 1.406.589-4.2331678 2.57484688-6.8911312 7.1027002-7.076 12.054v.064.024c-.014.1-.014.203-.014.313.0186447 3.3000776 1.1710204 6.4934717 3.264 9.045-.289-.016-.548-.028-.742-.034-1.30058-1.7757406-3.32484821-2.8795203-5.522-3.011-.40894499-.0003137-.77687254.2484037-.929.628-1.8 4.512.024 6.964.932 7.836.007.6.045 1.2.081 1.794-2.884 1.62-7.084 4.974-7.084 10.742 0 9.813 5.532 15 16 15zm15.431-4.651c-1.4292724-1.0774665-2.3060066-2.7342121-2.393-4.522 1.7846155-.1095166 3.5530687-.4037561 5.277-.878 1.359-.451 1.946-.264 2.009-.207.0169693.2869387-.0599014.5716061-.219.811-1.0104736 2.0535272-2.6471855 3.7329603-4.674 4.796zm-12.092-48.786c.2469109-.12440925.4312954-.34549247.5093505-.61072828s.0428143-.55095163-.0973505-.78927172c-.4429476-.60592266-1.0360866-1.08601716-1.721-1.393 1.4601473-.58523039 3.0974042-.53998229 4.523.125.3100616.15493832.6782442.13826339.9730309-.04406841.2947868-.18233179.4741307-.50431356.4739691-.85093159v-.776c3.038.734 4.344 2.028 4.868 2.786.1415167.20060766.3512554.34280342.59.4 1.4015153.33399755 2.7460205.8731475 3.99 1.6-7.1-.357-9.923 3.406-10.928 5.472-1.8000647-.8537769-3.8512579-1.0157226-5.763-.455-1.5109586.3690288-2.9166234 1.0811-4.108 2.081 1.1509029-3.2969797 3.55448-6.00774039 6.69-7.545zm-7.339 11.406c1.1153755-2.004006 3.0146287-3.4532645 5.242-4 3.347-.837 4.991.68 5.051.737.2580235.2584691.6364313.3557186.9871035.2536822.3506721-.1020365.6178286-.3871283.6968965-.7436822.063-.289 1.7-6.989 12.523-4.792 2.2280871 2.300916 3.4819133 5.3731482 3.5 8.576-.1264056 7.3361852 1.2629168 14.619489 4.081 21.394 1.721 4.017 3.232 9.624.658 13.529-2.172 3.294-6.969 5-14.248 5.07.471-.186.924-.382 1.35-.595 2.6368136-1.2381161 4.7736649-3.3368785 6.059-5.951.812-1.624.316-2.579-.052-3-.446-.514-1.576-1.249-4.159-.392-1.1385483.3185139-2.3031157.5353644-3.48.648 5.488-4 6.55-8.456 6.749-10.076 3.286-1.894 3.416-4.679 2.995-5.939-.0833375-.2516421-.2631796-.4598993-.5-.579-2.4146976-1.2283637-5.3164551-.9851629-7.493.628-4.972-3.461-11.162-4.852-15.68-5.41-2.6906727-2.3569844-4.2477254-5.7501224-4.28-9.327zm-4.33 8.122c1.44533932.3290175 2.7028283 1.2142898 3.5 2.464.185131.277481.4964302.4443824.83.445 1.2370398.0238828 2.4720195.1116665 3.7.263 4.493.526 10.863 1.912 15.7 5.537.3967205.2924746.9468407.2548125 1.3-.089 1.4617602-1.3451533 3.5631997-1.7377171 5.412-1.011.045.7-.172 2.216-2.559 3.409-.3377653.1687789-.5516644.5134157-.553.891 0 .056-.087 5.629-7.588 10.164-.0347299.0216354-.0681239.0453451-.1.071-.4.237-.838.48-1.339.739-.7.007-1.384-.014-2.056-.044 1.5119764-1.2592761 2.8313176-2.7332591 3.916-4.375.1982824-.297245.2229246-.6776931.0646441-.9980332-.1582805-.32034-.4754371-.5319049-.832-.555s-.6983617.1457882-.8966441.4430332c-1.3635108 2.1054328-3.1727994 3.8857045-5.3 5.215-.4406667-.058-.9-.1343333-1.378-.229-.3271659-1.1142438-.4925224-2.2697186-.491-3.431 0-.5522847-.4477153-1-1-1s-1 .4477153-1 1c-.0000597.9666294.0970959 1.9308145.29 2.878-.6310055-.1940219-1.2497865-.4257726-1.853-.694-.9165928-2.976662-1.4005419-6.0696253-1.437-9.184 0-.5522847-.4477153-1-1-1s-1 .4477153-1 1c.0213238 2.6123315.3492344 5.2131292.977 7.749-.8153395-.6072178-1.5188274-1.3516495-2.079-2.2-.97913917-2.8386411-1.58128649-5.7935673-1.791-8.789-.071-.909-.107-1.839-.107-2.76.00005002-.3342785-.16693028-.6464754-.445-.832-.022-.015-2.043-1.416-.885-5.077zm-.4 10.392c.28241881 2.6915258.88673722 5.3394477 1.8 7.887.02222558.0551203.04898394.1083026.08.159 1.2304688 1.8879683 2.9793647 3.3809707 5.037 4.3 1.375718.6506051 2.8233906 1.136631 4.313 1.448l.057.011c.854.185 1.64.317 2.4.405 1.5079132.1930769 3.0267812.2879435 4.547.284.2426667 0 .4873333-.0023333.734-.007.27 0 .533-.012.793-.022.1461264 1.9936967.9762445 3.8757688 2.35 5.328-1.7752905.6231509-3.6131003 1.0513361-5.481 1.277l-.05.006c-2.6041207.3194772-5.2264823.4667971-7.85.441-9.421 0-14-4.252-14-13 0-4.274 2.887-7 5.268-8.517z" />
            <path id="Shape"
                d="m17.768 22.776c.4030667-.0039755.8018671-.0829895 1.176-.233.7574638-.2660122 1.3716867-.8326426 1.6977939-1.5662419.3261073-.7335993.3352262-1.5692168.0252061-2.3097581-.1952327-.5166624-.7723376-.7772326-1.289-.582-.5166624.1952327-.7772326.7723376-.582 1.289.1353927.3348513.0796953.7166909-.1457076.9989144s-.5854781.4209663-.9419774.3629591-.6540137-.3037485-.778315-.6428735c-.2007555-.5147294-.7807706-.7692555-1.2955-.5685s-.7692555.7807706-.5685 1.2955c.4192746 1.1406692 1.4874436 1.9139256 2.702 1.956z" />
            <path id="Shape"
                d="m30.833 17.75c.403295-.0039741.8023632-.082635 1.177-.232 1.0575868-.3487954 1.8079441-1.2911594 1.911-2.4.0460245-.5004843-.0181462-1.0049752-.188-1.478-.1982702-.5155578-.7769422-.7727702-1.2925-.5744999-.5155578.1982702-.7727702.7769421-.5745 1.2924999.0569984.1836021.0790464.3762678.065.568-.025.246-.118.524-.639.724-.2470066.1239536-.5366813.1301668-.7887756.0169182-.2520943-.1132485-.4398394-.3339333-.5112244-.6009182-.2010317-.5144532-.7810468-.7685316-1.2955-.5675-.5144532.2010317-.7685316.7810468-.5675 1.2955.4195483 1.1413266 1.4887043 1.914725 2.704 1.956z" />
            <path id="Shape"
                d="m24.544 21.39c.1227458-.000311.2444048-.0230162.359-.067l1.867-.718c.339125-.1243013.5848663-.4218157.6428735-.778315s-.0807356-.7165745-.3629591-.9419774-.6640631-.2811003-.9989144-.1457076l-1.866.718c-.4492702.1732918-.7112396.6421627-.6233121 1.1155996s.5007795.8169789.9823121.8174004z" />
            <path id="Shape"
                d="m25.313 26.086c.7941116-.0074476 1.5799966-.1617089 2.318-.455 1.8946287-.5899153 3.3026128-2.186479 3.651-4.14.0518016-.5423852-.3431145-1.0252091-.885-1.082-.5430864-.054233-1.0306875.3336315-1.1.875-.2841399 1.1978618-1.1957003 2.1473242-2.381 2.48-1.1024287.5442597-2.412803.4509619-3.427-.244-.4116835-.3554414-1.0319609-.3166739-1.3961831.0872618-.3642222.4039358-.3388177 1.0249041.0571831 1.3977382.8950405.7199274 2.0145536 1.1025368 3.163 1.081z" />
        </g>
    </g>
</svg>