<svg height="512" viewBox="0 0 49 60" width="512" xmlns="http://www.w3.org/2000/svg"><g id="Page-1" fill="none" fill-rule="evenodd"><g id="009---Sleepy-Sloth" fill-rule="nonzero"><g id="Icons_copy" transform="translate(1 1)"><path id="Shape" d="m29 58c-2.0119745.0061608-4.0213766-.1442936-6.01-.45 2.5657085-.2723434 5.0691363-.9649246 7.41-2.05 2.4386189-1.1419937 4.4142562-3.0823517 5.6-5.5 1-2-.32-2.89-3-2-1.9769742.5238024-4.0061628.8256651-6.05.9-.55.04-1.13.06-1.73.07.61-.31 1.18-.62 1.71-.94v-.01c8.07-4.88 8.07-11.02 8.07-11.02 4-2 3-5 3-5-2.3125644-1.1651399-5.1061774-.7660523-7 1-5.16-3.87-11.99-5.24-16.18-5.73-3.036143-2.5499631-4.798559-6.3051524-4.82-10.27 0-.11 0-.21.01-.32v-.01c1.2359128-2.3425157 3.4167786-4.0427901 5.99-4.67 4-1 6 1 6 1s1.81-8.13 14.01-5.5c2.5401033 2.5102751 3.9758874 5.9288087 3.99 9.5-.1289599 7.2009298 1.2329011 14.3507004 4 21 3 7 6 20-15 20z" fill="#e8edfc"/><path id="Shape" d="m44 38c-2.7670989-6.6492996-4.1289599-13.7990702-4-21-.0141126-3.5711913-1.4498967-6.9897249-3.99-9.5-1.9546889-.45824658-3.9685992-.61072354-5.97-.452.9986293.08714878 1.9906571.23812404 2.97.452 2.5401033 2.5102751 3.9758874 5.9288087 3.99 9.5-.1289599 7.2009298 1.2329011 14.3507004 4 21 2.928 6.833 5.844 19.375-13.546 19.971.506.0193333 1.0213333.029 1.546.029 21 0 18-13 15-20z" fill="#cad9fc"/><path id="Shape" d="m36.01 7.5c-12.2-2.63-14.01 5.5-14.01 5.5s-2-2-6-1c-2.5732214.6272099-4.7540872 2.3274843-5.99 4.67.1979434-5.1518425 3.2311411-9.77092532 7.88-12-.52-.88-2.89-1.67-2.89-1.67 3-3 7-1 7-1v-2c4.33.73 6.06 2.53 6.69 3.44 2.7692709.64837974 5.3036828 2.05407815 7.32 4.06z" fill="#e8edfc"/><path id="Shape" d="m25.69 3.44c2.5319105.5962978 4.8714039 1.82453187 6.8 3.57 1.1853314.07104219 2.3632716.23487719 3.523.49-2.0163172-2.00592185-4.5507291-3.41162026-7.32-4.06-.633-.91-2.363-2.71-6.693-3.44v.8c1.4674896.48891703 2.7534597 1.40896066 3.69 2.64z" fill="#cad9fc"/><path id="Shape" d="m19.441 11.838c.9440393.1432505 1.8298612.5454877 2.559 1.162 0 0 1.182-5.286 8.04-5.952-7.003-.596-9.675 2.895-10.599 4.79z" fill="#cad9fc"/><path id="Shape" d="m30.4 55.5c-2.3408637 1.0850754-4.8442915 1.7776566-7.41 2.05h-.01c-2.6472355.3250368-5.3130052.4753621-7.98.45-12.12 0-15-7-15-14 0-5.64 4.47-8.79 7.11-10.16.20761007 3.1254694.84355376 6.2076092 1.89 9.16 1.1307183 1.7264161 2.7346049 3.0907612 4.62 3.93 1.3048518.6155749 2.6776315 1.0754058 4.09 1.37h.01c.7794358.1729545 1.5671045.3064576 2.36.4 1.7043035.2169345 3.422348.3071819 5.14.27.6-.01 1.18-.03 1.73-.07.1 2.07.7 5.28 3.45 6.6z" fill="#e8edfc"/><path id="Shape" d="m26.95 48.9c-.55.04-1.13.06-1.73.07-.4146667.008-.836.008-1.264 0 .11 2.072.724 5.222 3.444 6.528-2.3408637 1.0850754-4.8442915 1.7776566-7.41 2.05h-.01c-1.9058123.2425888-3.823197.3834552-5.744.422.258.006.5.028.764.028 2.6669948.0253621 5.3327645-.1249632 7.98-.45h.01c2.5655933-.2717105 5.0690164-.9636147 7.41-2.048-2.75-1.32-3.35-4.53-3.45-6.6z" fill="#cad9fc"/><path id="Shape" d="m6 43c1.1307183 1.7264161 2.73460495 3.0907612 4.62 3.93 1.3048518.6155749 2.6776315 1.0754058 4.09 1.37h.01c.7794358.1729545 1.5671045.3064576 2.36.4 1.7043035.2169345 3.422348.3071819 5.14.27.252 0 .482-.021.726-.029-.947-.04-1.908-.114-2.866-.241-.7928955-.0935424-1.5805642-.2270455-2.36-.4h-.01c-1.4123685-.2945942-2.7851482-.7544251-4.09-1.37-1.8853951-.8392388-3.4892817-2.2035839-4.62-3.93-1.04644624-2.9523908-1.68238993-6.0345306-1.89-9.16-.99460343.5137117-1.93586681 1.1246955-2.81 1.824.28287849 2.5025356.85331071 4.9641184 1.7 7.336z" fill="#cad9fc"/><path id="Shape" d="m35 37s0 6.14-8.07 11.02v.01c-.53.32-1.1.63-1.71.94-1.717652.0371819-3.4356965-.0530655-5.14-.27-.7928955-.0935424-1.5805642-.2270455-2.36-.4h-.01c-1.4123685-.2945942-2.7851482-.7544251-4.09-1.37-1.8853951-.8392388-3.4892817-2.2035839-4.62-3.93-1.04644624-2.9523908-1.68238993-6.0345306-1.89-9.16-.07-.9-.11-1.85-.11-2.84 0 0-3-2-1-7 2.04890178.1479949 3.90522723 1.2617901 5 3 1.2771855.0229852 2.552279.1131096 3.82.27 4.19.49 11.02 1.86 16.18 5.73 1.8938226-1.7660523 4.6874356-2.1651399 7-1 0 0 1 3-3 5z" fill="#fff"/><g fill="#e8edfc"><path id="Shape" d="m38 32c-1.3163141-.6945306-2.8462635-.8666678-4.284-.482.4434704.1159774.8737589.2775031 1.284.482 0 0 1 3-3 5 0 0 0 6.14-8.07 11.02v.01c-.5.3-1.028.589-1.593.879.982.058 1.952.078 2.883.061.61-.31 1.18-.62 1.71-.94v-.01c8.07-4.88 8.07-11.02 8.07-11.02 4-2 3-5 3-5z"/><path id="Shape" d="m36 50c-1.1857438 2.4176483-3.1613811 4.3580063-5.6 5.5-2.75-1.32-3.35-4.53-3.45-6.6 2.0438372-.0743349 4.0730258-.3761976 6.05-.9 2.68-.89 4 0 3 2z"/></g></g><g id="Recolour_Swatches" fill="#fff" transform="translate(1 2)"><path id="Shape" d="m15 57c.809 0 1.53-.009 2.188-.024-9.088-.253-14.188-4.727-14.188-13.976 0-4.095 2.395-7.248 5.742-9.374.82354964-.517667 1.3101725-1.4337973 1.278-2.406 0-.059 0-.118 0-.178-.03001298-.6111148-.25937249-1.1955777-.653-1.664-.687-.852-1.567-2.619-.655-5.547-.82536064-.4880297-1.75491441-.7728597-2.712-.831-2 5 1 7 1 7 0 .99.04 1.94.11 2.84-4.044 2.099-7.11 5.526-7.11 10.16 0 9.525 5.4 14 15 14z"/><path id="Shape" d="m14.549 26.013c.635.022 1.783.083 3.271.257-3.036143-2.5499631-4.798559-6.3051524-4.82-10.27.0761103-5.2745349 3.1326038-10.05103243 7.89-12.33-.52-.88-2.89-1.67-2.89-1.67.7069727-.72068774 1.6001346-1.23096708 2.58-1.474-1.9897842-.53233156-4.1126885.02844996-5.58 1.474 0 0 2.37.79 2.89 1.67-4.7573962 2.27896757-7.8138897 7.0554651-7.89 12.33.022273 3.8329497 1.6767995 7.4747992 4.549 10.013z"/><path id="Shape" d="m29 57c.5 0 .978-.014 1.454-.029-1.4950385-.0515848-2.9856777-.192167-4.464-.421-.215 0-.672.089-1.62.188 1.5369417.1771039 3.0828902.2645852 4.63.262z"/></g><g id="Layer_11"><path id="Shape" d="m3.146 40.64-1.746-.982c1.49140449-2.4618864 3.65965313-4.4426783 6.246-5.706l.922 1.776c-2.23985189 1.0851776-4.12155196 2.7898827-5.422 4.912z" fill="#fff"/><g fill="#428dff"><path id="Shape" d="m4.814 38.068c-.55228473.0024853-1.00201466-.4432153-1.00449994-.9955-.00248529-.5522847.44321521-1.0020147.99549994-1.0045h.009c.55228475 0 1 .4477153 1 1s-.44771525 1-1 1z"/><path id="Shape" d="m16 60c2.6660998.0243524 5.3309867-.1236226 7.978-.443 1.9933359.2989023 4.0063823.4469892 6.022.443 8.273 0 13.794-2.011 16.408-5.977 2.426-3.678 2.257-9.009-.489-15.417-2.709908-6.525948-4.0440587-13.5408773-3.919-20.606-.0171501-3.833331-1.5571929-7.5026689-4.281-10.2-2.0571719-2.05227955-4.6265563-3.51601032-7.441-4.239-.905-1.139-2.917-2.84-7.112-3.547-.2901321-.04883955-.5870499.03256455-.8117074.22254078s-.3542556.46924509-.3542926.76345922v.6c-2.3784101-.69811165-4.948277-.04673642-6.707 1.7-.245167.24507882-.3459191.59964716-.2662601.93702668.0796591.33737952.3283645.60943706.6572601.71897332.4821317.16250335.9520012.35934059 1.406.589-4.2331678 2.57484688-6.8911312 7.1027002-7.076 12.054v.064.024c-.014.1-.014.203-.014.313.0186447 3.3000776 1.1710204 6.4934717 3.264 9.045-.289-.016-.548-.028-.742-.034-1.30058-1.7757406-3.32484821-2.8795203-5.522-3.011-.40894499-.0003137-.77687254.2484037-.929.628-1.8 4.512.024 6.964.932 7.836.01.82.047 1.643.11 2.453.2126396 3.2263492.87157976 6.407637 1.958 9.453.02222558.0551203.04898394.1083026.08.159 1.2304688 1.8879683 2.9793647 3.3809707 5.037 4.3 1.3753999.6505309 2.8227326 1.1365554 4.312 1.448l.057.011c.854.185 1.64.317 2.4.405 1.5079132.1930769 3.0267812.2879435 4.547.284.2426667 0 .4873333-.0023333.734-.007.27 0 .533-.012.793-.022.1459475 1.9934466.9761073 3.87526 2.35 5.327-1.7751075.623987-3.6129729 1.0525204-5.481 1.278l-.05.006c-2.6041207.3194772-5.2264823.4667971-7.85.441-9.421 0-14-4.252-14-13 .00059272-1.5277161.39531237-3.0294419 1.146-4.36.235947-.4680944.09089644-1.0384844-.34-1.337-.22813217-.155931-.51225652-.2063479-.78011026-.1384278-.26785375.0679201-.4936241.2476316-.61988974.4934278-.91924644 1.6305379-1.40343874 3.4701931-1.406 5.342 0 9.813 5.532 15 16 15zm3.339-53.437c.2469109-.12440925.4312954-.34549247.5093505-.61072828s.0428143-.55095163-.0973505-.78927172c-.4429476-.60592266-1.0360866-1.08601716-1.721-1.393 1.4601473-.58523039 3.0974042-.53998229 4.523.125.3100616.15493832.6782442.13826339.9730309-.04406841.2947868-.18233179.4741307-.50431356.4739691-.85093159v-.776c3.038.734 4.344 2.028 4.868 2.786.1415167.20060766.3512554.34280342.59.4 1.4015153.33399755 2.7460205.8731475 3.99 1.6-7.1-.357-9.923 3.406-10.928 5.472-1.8000647-.8537769-3.8512579-1.0157226-5.763-.455-1.5109586.3690288-2.9166234 1.0811-4.108 2.081 1.1509029-3.2969797 3.55448-6.00774039 6.69-7.545zm-7.339 11.406c1.1153755-2.004006 3.0146287-3.4532645 5.242-4 3.347-.837 4.991.68 5.051.737.2580235.2584691.6364313.3557186.9871035.2536822.3506721-.1020365.6178286-.3871283.6968965-.7436822.063-.289 1.7-6.989 12.523-4.792 2.2280871 2.300916 3.4819133 5.3731482 3.5 8.576-.1264056 7.3361852 1.2629168 14.619489 4.081 21.394 1.721 4.017 3.232 9.624.658 13.529-2.172 3.294-6.969 5-14.248 5.07.471-.186.924-.382 1.35-.595 2.6368136-1.2381161 4.7736649-3.3368785 6.059-5.951.812-1.624.316-2.579-.052-3-.446-.514-1.576-1.249-4.159-.392-1.1385483.3185139-2.3031157.5353644-3.48.648 5.488-4 6.55-8.456 6.749-10.076 3.286-1.894 3.416-4.679 2.995-5.939-.0833375-.2516421-.2631796-.4598993-.5-.579-2.4146976-1.2283637-5.3164551-.9851629-7.493.628-4.972-3.461-11.162-4.852-15.68-5.41-2.6906727-2.3569844-4.2477254-5.7501224-4.28-9.327zm11.916 30.961c1.5119764-1.2592761 2.8313176-2.7332591 3.916-4.375.1982824-.297245.2229246-.6776931.0646441-.9980331-.1582805-.3203401-.4754371-.5319049-.832-.555s-.6983617.1457881-.8966441.4430331c-1.3635108 2.1054328-3.1727994 3.8857045-5.3 5.215-.4406667-.058-.9-.1343333-1.378-.229-.3268276-1.1142932-.4918472-2.269767-.49-3.431 0-.5522847-.4477153-1-1-1s-1 .4477153-1 1c-.0000597.9666294.0970959 1.9308145.29 2.878-.6310055-.1940219-1.2497865-.4257726-1.853-.694-.9165928-2.976662-1.4005419-6.0696253-1.437-9.184 0-.5522847-.4477153-1-1-1s-1 .4477153-1 1c.0213238 2.6123315.3492344 5.2131292.977 7.749-.8153395-.6072178-1.5188274-1.3516495-2.079-2.2-.97913917-2.8386411-1.58128649-5.7935673-1.791-8.789-.071-.909-.107-1.839-.107-2.76.00005002-.3342785-.16693028-.6464754-.445-.832-.022-.015-2.043-1.416-.885-5.077 1.44533932.3290175 2.7028283 1.2142898 3.5 2.464.185131.277481.4964302.4443824.83.445 1.2370398.0238828 2.4720195.1116665 3.7.263 4.493.526 10.863 1.912 15.7 5.537.3967205.2924746.9468407.2548125 1.3-.089 1.4617602-1.3451533 3.5631997-1.7377171 5.412-1.011.045.7-.172 2.216-2.559 3.409-.3377653.1687789-.5516644.5134157-.553.891 0 .056-.087 5.629-7.588 10.164-.0347299.0216354-.0681239.0453451-.1.071-.4.237-.838.48-1.339.739-.705.007-1.385-.014-2.057-.044zm5.122 1.9c1.7846155-.1095166 3.5530687-.4037561 5.277-.878 1.359-.451 1.946-.264 2.009-.207.0169693.2869387-.0599014.5716061-.219.811-1.0097854 2.0550133-2.6465682 3.7359199-4.674 4.8-1.4311036-1.0790096-2.3080492-2.73872-2.393-4.529z"/><path id="Shape" d="m17.768 22.776c.4030667-.0039755.8018671-.0829895 1.176-.233.7574638-.2660122 1.3716867-.8326426 1.6977939-1.5662419.3261073-.7335993.3352262-1.5692168.0252061-2.3097581-.1952327-.5166624-.7723376-.7772326-1.289-.582-.5166624.1952327-.7772326.7723376-.582 1.289.1353927.3348513.0796953.7166909-.1457076.9989144s-.5854781.4209663-.9419774.3629591-.6540137-.3037485-.778315-.6428735c-.2007555-.5147294-.7807706-.7692555-1.2955-.5685s-.7692555.7807706-.5685 1.2955c.4192746 1.1406692 1.4874436 1.9139256 2.702 1.956z"/><path id="Shape" d="m30.833 17.75c.403295-.0039741.8023632-.082635 1.177-.232 1.0575868-.3487954 1.8079441-1.2911594 1.911-2.4.0460245-.5004843-.0181462-1.0049752-.188-1.478-.1982702-.5155578-.7769422-.7727702-1.2925-.5744999-.5155578.1982702-.7727702.7769421-.5745 1.2924999.0569984.1836021.0790464.3762678.065.568-.025.246-.118.524-.639.724-.2470066.1239536-.5366813.1301668-.7887756.0169182-.2520943-.1132485-.4398394-.3339333-.5112244-.6009182-.2010317-.5144532-.7810468-.7685316-1.2955-.5675-.5144532.2010317-.7685316.7810468-.5675 1.2955.4195483 1.1413266 1.4887043 1.914725 2.704 1.956z"/><path id="Shape" d="m24.544 21.39c.1227458-.000311.2444048-.0230162.359-.067l1.867-.718c.339125-.1243013.5848663-.4218157.6428735-.778315s-.0807356-.7165745-.3629591-.9419774-.6640631-.2811003-.9989144-.1457076l-1.866.718c-.4492702.1732918-.7112396.6421627-.6233121 1.1155996s.5007795.8169789.9823121.8174004z"/><path id="Shape" d="m25.313 26.086c.7941116-.0074476 1.5799966-.1617089 2.318-.455 1.8946287-.5899153 3.3026128-2.186479 3.651-4.14.0518016-.5423852-.3431145-1.0252091-.885-1.082-.5430864-.054233-1.0306875.3336315-1.1.875-.2841399 1.1978618-1.1957003 2.1473242-2.381 2.48-1.1024287.5442597-2.412803.4509619-3.427-.244-.4116835-.3554414-1.0319609-.3166739-1.3961831.0872618-.3642222.4039358-.3388177 1.0249041.0571831 1.3977382.8950405.7199274 2.0145536 1.1025368 3.163 1.081z"/></g></g></g></g></svg>